<svg id="Layer_1" data-name="Layer 1" xmlns="http://www.w3.org/2000/svg" viewBox="0 0 500 500"><g id="Arrow-13"><path d="M387.81,292.61a6.13,6.13,0,0,0-5.53-3H117.72a6.16,6.16,0,0,0-5.54,3.05,4.38,4.38,0,0,0,1.23,5.41L245.69,410.88a6.91,6.91,0,0,0,8.62,0L386.59,298A4.38,4.38,0,0,0,387.81,292.61Z"/></g><g id="Arrow-13-2" data-name="Arrow-13"><path d="M112.19,207.39a6.13,6.13,0,0,0,5.53,3H382.28a6.16,6.16,0,0,0,5.54-3.05,4.38,4.38,0,0,0-1.23-5.41L254.31,89.12a6.91,6.91,0,0,0-8.62,0L113.41,202A4.38,4.38,0,0,0,112.19,207.39Z"/></g></svg>